HIERARCHY
ROOT Hips
{
	OFFSET 0.000000 0.000000 0.000000
	CHANNELS 6 Xposition Yposition Zposition Zrotation Yrotation Xrotation 
	JOINT LHipJoint
	{
		OFFSET 0.000000 0.000000 0.000000
		CHANNELS 3 Zrotation Yrotation Xrotation
		JOINT LeftUpLeg
		{
			OFFSET 1.363060 -1.794630 0.839290
			CHANNELS 3 Zrotation Yrotation Xrotation
			JOINT LeftLeg
			{
				OFFSET 2.448110 -6.726130 0.000000
				CHANNELS 3 Zrotation Yrotation Xrotation
				JOINT LeftFoot
				{
					OFFSET 2.562200 -7.039590 0.000000
					CHANNELS 3 Zrotation Yrotation Xrotation
					JOINT LeftToeBase
					{
						OFFSET 0.157640 -0.433110 2.322550
						CHANNELS 3 Zrotation Yrotation Xrotation
						End Site
						{
							OFFSET 0.000000 0.000000 0.000000
						}
					}
				}
			}
		}
	}
	JOINT RHipJoint
	{
		OFFSET 0.000000 0.000000 0.000000
		CHANNELS 3 Zrotation Yrotation Xrotation
		JOINT RightUpLeg
		{
			OFFSET -1.305520 -1.794630 0.839290
			CHANNELS 3 Zrotation Yrotation Xrotation
			JOINT RightLeg
			{
				OFFSET -2.542530 -6.985550 0.000000
				CHANNELS 3 Zrotation Yrotation Xrotation
				JOINT RightFoot
				{
					OFFSET -2.568260 -7.056230 0.000000
					CHANNELS 3 Zrotation Yrotation Xrotation
					JOINT RightToeBase
					{
						OFFSET -0.164730 -0.452590 2.363150
						CHANNELS 3 Zrotation Yrotation Xrotation
						End Site
						{
							OFFSET 0.000000 0.000000 0.000000
						}
					}
				}
			}
		}
	}
	JOINT LowerBack
	{
		OFFSET 0.000000 0.000000 0.000000
		CHANNELS 3 Zrotation Yrotation Xrotation
		JOINT Spine
		{
			OFFSET 0.028270 2.035590 -0.193380
			CHANNELS 3 Zrotation Yrotation Xrotation
			JOINT Spine1
			{
				OFFSET 0.056720 2.048850 -0.042750
				CHANNELS 3 Zrotation Yrotation Xrotation
				JOINT Neck
				{
					OFFSET 0.000000 0.000000 0.000000
					CHANNELS 3 Zrotation Yrotation Xrotation
					JOINT Neck1
					{
						OFFSET -0.054170 1.746240 0.172020
						CHANNELS 3 Zrotation Yrotation Xrotation
						JOINT Head
						{
							OFFSET 0.104070 1.761360 -0.123970
							CHANNELS 3 Zrotation Yrotation Xrotation
							End Site
							{
								OFFSET 0.000000 0.000000 0.000000
							}
						}
					}
				}
				JOINT LeftShoulder
				{
					OFFSET 0.000000 0.000000 0.000000
					CHANNELS 3 Zrotation Yrotation Xrotation
					JOINT LeftArm
					{
						OFFSET 3.362410 1.200890 -0.311210
						CHANNELS 3 Zrotation Yrotation Xrotation
						JOINT LeftForeArm
						{
							OFFSET 4.983000 -0.000000 -0.000000
							CHANNELS 3 Zrotation Yrotation Xrotation
							JOINT LeftHand
							{
								OFFSET 3.483560 -0.000000 -0.000000
								CHANNELS 3 Zrotation Yrotation Xrotation
								JOINT LeftFingerBase
								{
									OFFSET 0.000000 0.000000 0.000000
									CHANNELS 3 Zrotation Yrotation Xrotation
									JOINT LeftHandIndex1
									{
										OFFSET 0.715260 -0.000000 -0.000000
										CHANNELS 3 Zrotation Yrotation Xrotation
										End Site
										{
											OFFSET 0.000000 0.000000 0.000000
										}
									}
								}
								JOINT LThumb
								{
									OFFSET 0.000000 0.000000 0.000000
									CHANNELS 3 Zrotation Yrotation Xrotation
									End Site
									{
										OFFSET 0.000000 0.000000 0.000000
									}
								}
							}
						}
					}
				}
				JOINT RightShoulder
				{
					OFFSET 0.000000 0.000000 0.000000
					CHANNELS 3 Zrotation Yrotation Xrotation
					JOINT RightArm
					{
						OFFSET -3.136600 1.374050 -0.404650
						CHANNELS 3 Zrotation Yrotation Xrotation
						JOINT RightForeArm
						{
							OFFSET -5.241900 -0.000000 -0.000000
							CHANNELS 3 Zrotation Yrotation Xrotation
							JOINT RightHand
							{
								OFFSET -3.444170 -0.000000 -0.000000
								CHANNELS 3 Zrotation Yrotation Xrotation
								JOINT RightFingerBase
								{
									OFFSET 0.000000 0.000000 0.000000
									CHANNELS 3 Zrotation Yrotation Xrotation
									JOINT RightHandIndex1
									{
										OFFSET -0.622530 -0.000000 -0.000000
										CHANNELS 3 Zrotation Yrotation Xrotation
										End Site
										{
											OFFSET 0.000000 0.000000 0.000000
										}
									}
								}
								JOINT RThumb
								{
									OFFSET 0.000000 0.000000 0.000000
									CHANNELS 3 Zrotation Yrotation Xrotation
									End Site
									{
										OFFSET 0.000000 0.000000 0.000000
									}
								}
							}
						}
					}
				}
			}
		}
	}
}
MOTION
Frames: 11
Frame Time: 0.008333
3.251772 17.072264 47.822046 -176.955895 7.359934 -148.322580 -8.444191 -4.030717 1.413139 -6.345021 -0.265837 -26.582458 8.416295 16.797277 54.816869 3.090128 -2.014764 38.289395 0.416300 4.141400 11.474800 2.873752 6.374433 -6.050097 21.508531 -4.533802 -62.060547 -4.716178 -15.723922 45.224984 -2.798563 3.426749 6.109084 -2.234700 9.338800 -26.860900 7.210883 -2.284158 34.344582 0.890328 2.260224 -3.509536 1.963766 1.214013 -10.782608 -2.998974 2.220616 -10.859036 -1.042487 2.783895 -2.415146 -2.284400 1.009000 1.804800 4.126339 -6.075033 0.656313 -84.110300 -2.980664 40.266349 85.032857 -57.125061 -62.487562 -0.821379 -0.305128 6.341269 28.147691 -6.424557 -3.274900 -7.125000 0.000000 0.000000 1.631200 23.198400 -0.857100 -3.128558 4.550379 -0.550617 78.565334 -1.471862 29.864552 -38.417522 43.219499 -22.008261 1.433256 2.152520 -10.286722 -19.211926 -9.873148 4.459500 7.125000 0.000000 0.000000 5.550500 -42.431400 0.353000 
3.269983 17.063918 47.486127 -176.686857 7.719313 -148.260445 -7.853313 -4.297776 0.756802 -6.347231 -0.283813 -28.722104 9.571461 17.441644 58.280143 2.809686 -2.695166 34.747523 0.313000 3.596500 9.944200 2.842218 6.324566 -5.800394 21.800569 -4.663249 -61.538591 -5.006226 -15.839406 46.053300 -2.924636 3.721010 5.024992 -2.352000 9.563700 -27.575000 7.230363 -2.212955 35.073356 0.886481 2.406175 -3.459642 1.826193 1.290901 -10.824664 -3.076877 2.249331 -10.718887 -1.196788 2.837493 -2.529839 -2.330800 1.042100 1.695100 4.093903 -6.154306 0.611974 -84.347552 -2.895474 39.505003 81.786465 -56.748040 -59.725521 -0.855403 -0.301678 5.825271 28.292264 -6.570039 -3.382200 -7.125000 0.000000 0.000000 1.756700 23.015700 -0.930400 -3.079911 4.636920 -0.503246 78.402687 0.083244 29.872501 -37.888229 42.812149 -21.510981 1.436403 2.105526 -9.962940 -18.982564 -9.622839 4.297100 7.125000 0.000000 0.000000 5.722400 -42.104600 0.410300 
3.291337 17.054921 47.151617 -176.540497 8.137316 -148.262423 -7.310951 -4.538520 0.146694 -6.392087 -0.312058 -30.967596 10.690623 18.017706 61.569494 2.586347 -3.288527 31.053726 0.157600 2.557600 7.049500 2.812157 6.290829 -5.563416 21.923139 -4.789799 -60.919604 -5.278449 -15.926199 46.788418 -2.978884 3.812871 4.061937 -2.438900 9.725900 -28.093500 6.879463 -2.137987 35.938241 0.933414 2.488408 -3.433486 2.126152 1.351438 -11.051278 -3.413638 2.355030 -10.425166 -1.341196 3.014022 -2.673597 -2.332200 1.140200 1.545400 4.086312 -6.245467 0.553544 -84.918372 -2.701109 38.446643 78.635226 -56.301342 -56.987338 -0.885505 -0.285303 4.796293 28.273287 -6.808931 -3.532500 -7.125000 0.000000 0.000000 1.754700 22.709700 -0.941700 -3.022111 4.725306 -0.448605 77.950991 1.494798 30.271279 -37.632969 42.550697 -21.240519 1.455259 2.092682 -9.770974 -19.017607 -9.603588 4.296200 7.125000 0.000000 0.000000 5.677400 -42.077600 0.410800 
3.310740 17.034651 46.814614 -176.433833 8.520239 -148.311888 -6.754350 -4.774141 -0.451223 -6.441436 -0.331447 -33.313805 11.804847 18.531664 64.856316 2.477067 -4.101033 26.589818 0.012000 0.708600 1.947300 2.786577 6.235545 -5.332024 22.083090 -5.063036 -60.326585 -5.558426 -16.014955 47.535453 -2.975204 3.747591 3.156054 -2.563100 9.951700 -28.820500 6.756044 -1.952625 36.729748 0.893435 2.719864 -3.376586 1.855958 1.468310 -11.056860 -3.344462 2.266019 -10.424834 -1.463918 2.898078 -2.751480 -2.399400 1.085800 1.500300 4.048963 -6.322323 0.511426 -84.942850 -2.764622 37.978736 75.538691 -55.775718 -54.220304 -0.938035 -0.282729 3.318281 28.950087 -6.851298 -3.673800 -7.125000 0.000000 0.000000 2.291800 22.589500 -1.236600 -3.014359 4.814258 -0.408468 77.983541 2.941533 30.026943 -37.582620 42.406256 -21.156963 1.479586 2.054742 -9.448370 -19.109828 -9.507187 4.270800 7.125000 0.000000 0.000000 5.568300 -41.951800 0.420200 
3.331985 17.064243 46.464061 -176.315494 8.674573 -148.469206 -6.253656 -5.006161 -1.037426 -6.290838 -0.554996 -35.623728 12.797825 18.964167 67.605219 2.392547 -4.486724 24.130160 0.040300 1.295700 3.562800 2.811877 6.178155 -5.073936 22.376523 -5.571098 -59.568256 -5.796953 -16.053194 48.148281 -2.828049 3.313106 2.401416 -2.634400 10.078300 -29.230500 6.819486 -1.831004 37.571773 0.857060 2.951721 -3.325357 1.473089 1.577775 -11.090621 -3.135839 2.184325 -10.436716 -1.608835 2.768028 -2.800594 -2.509200 1.018900 1.483200 4.028779 -6.397049 0.480094 -84.881587 -2.906422 37.567897 72.892481 -55.264972 -51.833867 -0.989097 -0.291460 1.524321 29.533150 -6.836163 -3.769600 -7.125000 0.000000 0.000000 2.762900 22.542800 -1.494300 -3.044591 4.887891 -0.376839 78.138795 4.174727 29.783547 -38.185894 42.644425 -21.631023 1.522639 2.014104 -9.323751 -19.574651 -9.375545 4.314500 7.125000 0.000000 0.000000 5.099400 -41.814300 0.401900 
3.349654 17.032916 46.127708 -176.161259 8.910221 -148.582211 -5.720328 -5.199638 -1.585777 -6.111403 -0.702794 -38.048244 13.865215 19.375410 70.542662 2.325812 -4.853120 21.066980 0.018000 0.865200 2.378000 2.782364 6.107652 -4.839165 22.603166 -5.906904 -58.983183 -6.102198 -16.150239 48.971244 -2.709438 2.971584 1.548152 -2.767100 10.308200 -29.980600 6.815716 -1.720755 38.408044 0.833955 3.154849 -3.272410 1.211335 1.676570 -11.128173 -3.057144 2.130273 -10.396892 -1.747792 2.692836 -2.875452 -2.586700 0.984100 1.431900 4.004544 -6.473365 0.447750 -84.933075 -3.006310 36.934352 70.223245 -54.709001 -49.423438 -1.031085 -0.285525 0.199930 29.940427 -6.852982 -3.864500 -7.125000 0.000000 0.000000 3.092900 22.457600 -1.679200 -3.054153 4.960943 -0.338946 78.130529 5.505182 29.671119 -38.509469 42.716996 -21.867831 1.548835 1.979994 -9.210756 -19.816401 -9.255823 4.311600 7.125000 0.000000 0.000000 4.846700 -41.675100 0.398600 
3.366021 16.995195 45.790163 -176.005659 9.118123 -148.736327 -5.195956 -5.374119 -2.109257 -5.874753 -0.869677 -40.528205 14.875088 19.732189 73.302277 2.290593 -5.170086 18.314657 0.007500 0.560000 1.538700 2.752688 6.028644 -4.603891 22.821151 -6.270060 -58.378289 -6.420170 -16.251723 49.833210 -2.537618 2.508188 0.728533 -2.913400 10.553500 -30.788500 6.848270 -1.615206 39.260889 0.805406 3.368311 -3.215243 0.896870 1.778212 -11.144852 -2.940042 2.060535 -10.378675 -1.883068 2.593200 -2.943469 -2.669700 0.936800 1.388300 3.980693 -6.546050 0.421874 -84.933497 -3.157359 36.300143 67.705554 -54.137715 -47.143605 -1.072922 -0.279767 -1.012021 30.333163 -6.817639 -3.927300 -7.125000 0.000000 0.000000 3.414900 22.432700 -1.856600 -3.076509 5.027133 -0.302715 78.143498 6.798206 29.542580 -39.014065 42.891040 -22.265093 1.571591 1.947711 -9.185960 -20.083098 -9.129041 4.309800 7.125000 0.000000 0.000000 4.572000 -41.529900 0.392300 
3.380655 16.950969 45.450883 -175.844791 9.309164 -148.926469 -4.676988 -5.526252 -2.607262 -5.592101 -1.050726 -43.063793 15.831134 20.041171 75.916969 2.290537 -5.495471 15.834043 0.003500 0.381700 1.048900 2.715242 5.935964 -4.367344 23.015841 -6.626762 -57.773857 -6.783130 -16.380839 50.832029 -2.339904 1.991524 -0.132243 -3.051000 10.777200 -31.532200 6.921416 -1.518835 40.115659 0.769500 3.583781 -3.151986 0.522128 1.880105 -11.127329 -2.783905 1.978813 -10.379440 -2.012987 2.474368 -3.006193 -2.756300 0.879700 1.348400 3.955436 -6.612919 0.404057 -84.869730 -3.356896 35.647174 65.368151 -53.564036 -45.033107 -1.112167 -0.278664 -2.062828 30.642981 -6.691763 -3.918600 -7.125000 0.000000 0.000000 3.681200 22.525500 -1.994100 -3.110821 5.086004 -0.267298 78.177071 8.074673 29.405509 -39.664276 43.143415 -22.793857 1.586728 1.909257 -9.242574 -20.323210 -8.914864 4.261900 7.125000 0.000000 0.000000 4.314300 -41.280100 0.396700 
3.393771 16.900131 45.109653 -175.692055 9.502489 -149.144733 -4.172755 -5.657450 -3.078234 -5.283760 -1.233432 -45.646562 16.695619 20.300849 78.287207 2.321313 -5.840262 13.703714 0.002800 0.338700 0.930500 2.677591 5.835679 -4.133198 23.148854 -6.961936 -57.131248 -7.158270 -16.516088 51.872516 -2.124312 1.442612 -0.942930 -3.176700 10.975800 -32.198200 6.999504 -1.430623 40.961865 0.728810 3.789047 -3.082650 0.120829 1.978363 -11.075293 -2.613767 1.894383 -10.389597 -2.133263 2.351721 -3.067477 -2.839300 0.821500 1.306600 3.929968 -6.673560 0.393260 -84.773884 -3.598003 34.941877 63.202938 -52.992803 -43.090435 -1.146849 -0.281955 -2.894574 30.833484 -6.470388 -3.826800 -7.125000 0.000000 0.000000 3.865100 22.747900 -2.074500 -3.156249 5.137604 -0.231049 78.210733 9.348824 29.303533 -40.453264 43.465200 -23.449701 1.593680 1.874933 -9.361755 -20.522935 -8.707981 4.206300 7.125000 0.000000 0.000000 4.100700 -41.036800 0.401600 
3.405044 16.842898 44.765712 -175.554755 9.718191 -149.382407 -3.685691 -5.766333 -3.520893 -4.974439 -1.405370 -48.275158 17.457963 20.516569 80.385026 2.382886 -6.227270 11.865682 0.002300 0.310500 0.853100 2.640077 5.728510 -3.903276 23.190188 -7.248961 -56.438925 -7.544298 -16.657518 52.950903 -1.909423 0.905037 -1.697649 -3.279500 11.134300 -32.734200 7.057659 -1.340222 41.786864 0.682723 3.984558 -3.007861 -0.294958 2.074356 -10.988134 -2.437435 1.806736 -10.409505 -2.241620 2.225362 -3.123902 -2.916600 0.761800 1.265000 3.903578 -6.726776 0.388724 -84.645641 -3.865731 34.191282 61.213161 -52.431952 -41.319430 -1.177361 -0.288359 -3.534587 30.930429 -6.195854 -3.682100 -7.125000 0.000000 0.000000 3.982200 23.047400 -2.110300 -3.210399 5.182039 -0.193807 78.228939 10.619819 29.243409 -41.360415 43.841006 -24.217344 1.589916 1.840922 -9.514057 -20.644835 -8.474121 4.120700 7.125000 0.000000 0.000000 3.962700 -40.757600 0.415300 
3.414800 16.779703 44.418628 -175.441247 9.968635 -149.640975 -3.218489 -5.850521 -3.928381 -4.685704 -1.563000 -50.941717 18.107782 20.693051 82.179464 2.472301 -6.664941 10.297499 0.002100 0.294400 0.808800 2.606945 5.613504 -3.672458 23.120670 -7.475482 -55.687764 -7.938381 -16.802875 54.056003 -1.707159 0.404346 -2.394121 -3.367900 11.268100 -33.189300 7.089621 -1.249071 42.632774 0.623913 4.163240 -2.948835 -0.723955 2.168824 -10.877502 -2.259769 1.718070 -10.444815 -2.337270 2.098628 -3.177779 -2.986900 0.702300 1.224600 3.874979 -6.772341 0.384774 -84.490369 -4.161327 33.394082 59.411464 -51.889452 -39.732440 -1.203641 -0.299897 -4.040785 30.930527 -5.870964 -3.485900 -7.125000 0.000000 0.000000 4.029800 23.422500 -2.100900 -3.276268 5.222575 -0.159594 78.226568 11.906346 29.232514 -42.369101 44.255231 -25.083512 1.577191 1.811039 -9.669595 -20.691844 -8.262721 4.028900 7.125000 0.000000 0.000000 3.902600 -40.500600 0.433700 
